<mxfile host="app.diagrams.net" modified="2024-02-07T05:16:55.658Z" agent="Mozilla/5.0 (Windows NT 10.0; Win64; x64) AppleWebKit/537.36 (KHTML, like Gecko) Chrome/121.0.0.0 Safari/537.36" version="23.1.1" etag="VyI48rKUX5pAqXUlQCKf" type="github">
  <diagram name="Page-1" id="9BYyo36-GhCo_zl6m_CP">
    <mxGraphModel>
      <root>
        <mxCell id="0" />
        <mxCell id="1" parent="0" />
      </root>
    </mxGraphModel>
  </diagram>
</mxfile>
